<svg xmlns="http://www.w3.org/2000/svg" viewBox="0 0 24 24"><path fill="#25D366" d="M20.52 3.48A11.92 11.92 0 0 0 12 0C5.373 0 .001 5.373 0 12c0 2.116.557 4.146 1.611 5.95L0 24l6.318-1.602A11.922 11.922 0 0 0 12 24c6.627 0 12-5.373 12-12 0-3.23-1.257-6.186-3.48-8.52z"/><path fill="#fff" d="M17.472 14.382c-.297-.149-1.758-.867-2.03-.967-.273-.099-.473-.149-.672.15-.198.297-.768.966-.94 1.164-.173.198-.347.223-.644.075-.297-.149-1.255-.462-2.39-1.476-.885-.788-1.48-1.761-1.653-2.059-.173-.297-.018-.458.13-.606.134-.133.298-.347.446-.52.152-.173.203-.298.305-.497.099-.198.05-.372-.025-.521-.075-.149-.672-1.62-.921-2.217-.243-.582-.49-.503-.672-.513l-.573-.01c-.198 0-.52.074-.792.372s-1.04 1.016-1.04 2.479 1.065 2.876 1.213 3.074c.149.198 2.095 3.2 5.076 4.487  .709.306 1.26.489 1.69.626.71.226 1.356.194 1.868.118.57-.085 1.758-.718 2.006-1.412.248-.695.248-1.29.173-1.412-.074-.123-.273-.198-.57-.347z"/></svg>